<svg xmlns="http://www.w3.org/2000/svg" viewBox="0 0 100 100">
  <rect width="100" height="100" fill="#0e0c15"/>

  <!-- Background city grid (faint) -->
  <line x1="0" y1="10" x2="100" y2="10" stroke="#161320" stroke-width="0.3"/>
  <line x1="0" y1="20" x2="100" y2="20" stroke="#161320" stroke-width="0.3"/>
  <line x1="0" y1="40" x2="100" y2="40" stroke="#161320" stroke-width="0.3"/>
  <line x1="0" y1="60" x2="100" y2="60" stroke="#161320" stroke-width="0.3"/>
  <line x1="0" y1="80" x2="100" y2="80" stroke="#161320" stroke-width="0.3"/>
  <line x1="0" y1="90" x2="100" y2="90" stroke="#161320" stroke-width="0.3"/>
  <line x1="10" y1="0" x2="10" y2="100" stroke="#161320" stroke-width="0.3"/>
  <line x1="20" y1="0" x2="20" y2="100" stroke="#161320" stroke-width="0.3"/>
  <line x1="40" y1="0" x2="40" y2="100" stroke="#161320" stroke-width="0.3"/>
  <line x1="60" y1="0" x2="60" y2="100" stroke="#161320" stroke-width="0.3"/>
  <line x1="80" y1="0" x2="80" y2="100" stroke="#161320" stroke-width="0.3"/>
  <line x1="90" y1="0" x2="90" y2="100" stroke="#161320" stroke-width="0.3"/>

  <!-- Major roads -->
  <line x1="0" y1="50" x2="100" y2="50" stroke="#211d2e" stroke-width="1.4"/>
  <line x1="50" y1="0" x2="50" y2="100" stroke="#211d2e" stroke-width="1.4"/>

  <!-- Secondary roads -->
  <line x1="0" y1="30" x2="100" y2="30" stroke="#1c1929" stroke-width="0.7" stroke-dasharray="4,3"/>
  <line x1="30" y1="0" x2="30" y2="100" stroke="#1c1929" stroke-width="0.7" stroke-dasharray="4,3"/>
  <line x1="0" y1="65" x2="100" y2="65" stroke="#191624" stroke-width="0.5" stroke-dasharray="2,4"/>
  <line x1="70" y1="0" x2="70" y2="100" stroke="#191624" stroke-width="0.5" stroke-dasharray="2,4"/>

  <!-- Diagonal connector roads -->
  <line x1="30" y1="30" x2="50" y2="50" stroke="#141920" stroke-width="0.4" stroke-dasharray="1,3"/>
  <line x1="70" y1="30" x2="50" y2="50" stroke="#141920" stroke-width="0.4" stroke-dasharray="1,3"/>

  <!-- Background city blocks (faint density filler) -->
  <rect x="5"  y="5"  width="8" height="8" rx="0.5" fill="#110f18" stroke="#191624" stroke-width="0.3"/>
  <rect x="16" y="5"  width="6" height="5" rx="0.5" fill="#110f18" stroke="#191624" stroke-width="0.3"/>
  <rect x="24" y="5"  width="4" height="4" rx="0.5" fill="#110f18" stroke="#191624" stroke-width="0.3"/>
  <rect x="5"  y="16" width="6" height="5" rx="0.5" fill="#110f18" stroke="#191624" stroke-width="0.3"/>
  <rect x="74" y="5"  width="6" height="5" rx="0.5" fill="#110f18" stroke="#191624" stroke-width="0.3"/>
  <rect x="82" y="8"  width="8" height="7" rx="0.5" fill="#110f18" stroke="#191624" stroke-width="0.3"/>
  <rect x="74" y="15" width="8" height="5" rx="0.5" fill="#110f18" stroke="#191624" stroke-width="0.3"/>
  <rect x="5"  y="55" width="6" height="5" rx="0.5" fill="#110f18" stroke="#191624" stroke-width="0.3"/>
  <rect x="5"  y="63" width="5" height="4" rx="0.5" fill="#110f18" stroke="#191624" stroke-width="0.3"/>
  <rect x="80" y="55" width="8" height="6" rx="0.5" fill="#110f18" stroke="#191624" stroke-width="0.3"/>
  <rect x="80" y="65" width="7" height="5" rx="0.5" fill="#110f18" stroke="#191624" stroke-width="0.3"/>
  <rect x="35" y="80" width="8" height="6" rx="0.5" fill="#110f18" stroke="#191624" stroke-width="0.3"/>
  <rect x="46" y="78" width="6" height="5" rx="0.5" fill="#110f18" stroke="#191624" stroke-width="0.3"/>
  <rect x="55" y="80" width="7" height="6" rx="0.5" fill="#110f18" stroke="#191624" stroke-width="0.3"/>
  <rect x="65" y="78" width="5" height="5" rx="0.5" fill="#110f18" stroke="#191624" stroke-width="0.3"/>

  <!-- Main locations (brighter outlines) -->

  <!-- Tuck's Books -->
  <rect x="34" y="24" width="16" height="10" rx="1.5" fill="#13101c" stroke="#2d2840" stroke-width="0.5"/>
  <!-- bracket accent corners -->
  <polyline points="34,24 36,24" fill="none" stroke="#282435" stroke-width="0.6"/>
  <polyline points="34,24 34,26" fill="none" stroke="#282435" stroke-width="0.6"/>
  <polyline points="50,24 48,24" fill="none" stroke="#282435" stroke-width="0.6"/>
  <polyline points="50,24 50,26" fill="none" stroke="#282435" stroke-width="0.6"/>
  <polyline points="34,34 36,34" fill="none" stroke="#282435" stroke-width="0.6"/>
  <polyline points="34,34 34,32" fill="none" stroke="#282435" stroke-width="0.6"/>
  <polyline points="50,34 48,34" fill="none" stroke="#282435" stroke-width="0.6"/>
  <polyline points="50,34 50,32" fill="none" stroke="#282435" stroke-width="0.6"/>
  <text x="42" y="31" text-anchor="middle" fill="#2d2840" font-size="2.2" font-family="monospace">Tuck's Books</text>

  <!-- St. Vincent Hospital -->
  <rect x="60" y="18" width="16" height="12" rx="1.5" fill="#13101c" stroke="#2d2840" stroke-width="0.5"/>
  <polyline points="60,18 62,18" fill="none" stroke="#282435" stroke-width="0.6"/>
  <polyline points="60,18 60,20" fill="none" stroke="#282435" stroke-width="0.6"/>
  <polyline points="76,18 74,18" fill="none" stroke="#282435" stroke-width="0.6"/>
  <polyline points="76,18 76,20" fill="none" stroke="#282435" stroke-width="0.6"/>
  <polyline points="60,30 62,30" fill="none" stroke="#282435" stroke-width="0.6"/>
  <polyline points="60,30 60,28" fill="none" stroke="#282435" stroke-width="0.6"/>
  <polyline points="76,30 74,30" fill="none" stroke="#282435" stroke-width="0.6"/>
  <polyline points="76,30 76,28" fill="none" stroke="#282435" stroke-width="0.6"/>
  <!-- Hospital cross -->
  <line x1="68" y1="20" x2="68" y2="26" stroke="#2d2840" stroke-width="0.8"/>
  <line x1="65" y1="23" x2="71" y2="23" stroke="#2d2840" stroke-width="0.8"/>
  <text x="68" y="29" text-anchor="middle" fill="#2d2840" font-size="2" font-family="monospace">St. Vincent</text>

  <!-- Cole's Ranch -->
  <rect x="13" y="66" width="14" height="10" rx="1.5" fill="#13101c" stroke="#2d2840" stroke-width="0.5"/>
  <polyline points="13,66 15,66" fill="none" stroke="#282435" stroke-width="0.6"/>
  <polyline points="13,66 13,68" fill="none" stroke="#282435" stroke-width="0.6"/>
  <polyline points="27,76 25,76" fill="none" stroke="#282435" stroke-width="0.6"/>
  <polyline points="27,76 27,74" fill="none" stroke="#282435" stroke-width="0.6"/>
  <text x="20" y="73" text-anchor="middle" fill="#2d2840" font-size="2.2" font-family="monospace">Cole's Ranch</text>

  <!-- CHS Refinery -->
  <rect x="8" y="71" width="14" height="10" rx="1.5" fill="#13101c" stroke="#2d2840" stroke-width="0.5"/>
  <polyline points="8,71 10,71" fill="none" stroke="#282435" stroke-width="0.6"/>
  <polyline points="8,71 8,73" fill="none" stroke="#282435" stroke-width="0.6"/>
  <polyline points="22,81 20,81" fill="none" stroke="#282435" stroke-width="0.6"/>
  <polyline points="22,81 22,79" fill="none" stroke="#282435" stroke-width="0.6"/>
  <!-- Refinery towers -->
  <line x1="11" y1="71" x2="11" y2="73" stroke="#2d2840" stroke-width="0.5"/>
  <line x1="14" y1="71" x2="14" y2="73" stroke="#2d2840" stroke-width="0.5"/>
  <line x1="17" y1="71" x2="17" y2="73" stroke="#2d2840" stroke-width="0.5"/>
  <text x="15" y="78" text-anchor="middle" fill="#2d2840" font-size="2.2" font-family="monospace">CHS Refinery</text>

  <!-- Heights Auto -->
  <rect x="64" y="26" width="16" height="10" rx="1.5" fill="#13101c" stroke="#2d2840" stroke-width="0.5"/>
  <polyline points="64,26 66,26" fill="none" stroke="#282435" stroke-width="0.6"/>
  <polyline points="64,26 64,28" fill="none" stroke="#282435" stroke-width="0.6"/>
  <polyline points="80,36 78,36" fill="none" stroke="#282435" stroke-width="0.6"/>
  <polyline points="80,36 80,34" fill="none" stroke="#282435" stroke-width="0.6"/>
  <text x="72" y="33" text-anchor="middle" fill="#2d2840" font-size="2.2" font-family="monospace">Heights Auto</text>

  <!-- Billings Senior High -->
  <rect x="53" y="31" width="14" height="10" rx="1.5" fill="#13101c" stroke="#2d2840" stroke-width="0.5"/>
  <polyline points="53,31 55,31" fill="none" stroke="#282435" stroke-width="0.6"/>
  <polyline points="53,31 53,33" fill="none" stroke="#282435" stroke-width="0.6"/>
  <polyline points="67,41 65,41" fill="none" stroke="#282435" stroke-width="0.6"/>
  <polyline points="67,41 67,39" fill="none" stroke="#282435" stroke-width="0.6"/>
  <text x="60" y="38" text-anchor="middle" fill="#2d2840" font-size="2.2" font-family="monospace">Senior High</text>

  <!-- Downtown / Rail Bar compound -->
  <rect x="40" y="42" width="20" height="16" rx="1.5" fill="#13101c" stroke="#282435" stroke-width="0.6"/>
  <!-- Inner bracket corners -->
  <polyline points="40,42 43,42" fill="none" stroke="#2d2840" stroke-width="0.7"/>
  <polyline points="40,42 40,45" fill="none" stroke="#2d2840" stroke-width="0.7"/>
  <polyline points="60,42 57,42" fill="none" stroke="#2d2840" stroke-width="0.7"/>
  <polyline points="60,42 60,45" fill="none" stroke="#2d2840" stroke-width="0.7"/>
  <polyline points="40,58 43,58" fill="none" stroke="#2d2840" stroke-width="0.7"/>
  <polyline points="40,58 40,55" fill="none" stroke="#2d2840" stroke-width="0.7"/>
  <polyline points="60,58 57,58" fill="none" stroke="#2d2840" stroke-width="0.7"/>
  <polyline points="60,58 60,55" fill="none" stroke="#2d2840" stroke-width="0.7"/>
  <rect x="44" y="43" width="10" height="7" rx="1" fill="#111520" stroke="#282435" stroke-width="0.3"/>
  <text x="49" y="48" text-anchor="middle" fill="#2d2840" font-size="1.8" font-family="monospace">Rail Bar</text>
  <text x="50" y="56" text-anchor="middle" fill="#2d2840" font-size="2.4" font-family="monospace">Downtown</text>

  <!-- Midtown blocks -->
  <rect x="38" y="50" width="12" height="8" rx="1" fill="#110f18" stroke="#211d2e" stroke-width="0.3"/>
  <rect x="20" y="48" width="10" height="8" rx="1" fill="#110f18" stroke="#211d2e" stroke-width="0.3"/>

  <!-- Heights blocks -->
  <rect x="64" y="22" width="10" height="8" rx="1" fill="#110f18" stroke="#211d2e" stroke-width="0.3"/>

  <!-- Lower-right city fill -->
  <rect x="60" y="60" width="10" height="8" rx="1" fill="#110f18" stroke="#191624" stroke-width="0.3"/>
  <rect x="73" y="58" width="8" height="6" rx="1" fill="#110f18" stroke="#191624" stroke-width="0.3"/>
  <rect x="82" y="62" width="10" height="7" rx="1" fill="#110f18" stroke="#191624" stroke-width="0.3"/>
  <rect x="60" y="72" width="7" height="5" rx="0.5" fill="#110f18" stroke="#191624" stroke-width="0.3"/>
  <rect x="70" y="70" width="8" height="6" rx="0.5" fill="#110f18" stroke="#191624" stroke-width="0.3"/>
  <rect x="82" y="74" width="6" height="5" rx="0.5" fill="#110f18" stroke="#191624" stroke-width="0.3"/>
  <rect x="55" y="82" width="9" height="6" rx="0.5" fill="#110f18" stroke="#191624" stroke-width="0.3"/>
  <rect x="68" y="80" width="7" height="5" rx="0.5" fill="#110f18" stroke="#191624" stroke-width="0.3"/>
  <rect x="78" y="84" width="10" height="6" rx="0.5" fill="#110f18" stroke="#191624" stroke-width="0.3"/>
  <rect x="90" y="70" width="6" height="8" rx="0.5" fill="#110f18" stroke="#191624" stroke-width="0.3"/>
  <!-- Upper filler -->
  <rect x="30" y="10" width="8" height="6" rx="0.5" fill="#110f18" stroke="#191624" stroke-width="0.3"/>
  <rect x="42" y="8" width="6" height="5" rx="0.5" fill="#110f18" stroke="#191624" stroke-width="0.3"/>
  <rect x="55" y="7" width="7" height="5" rx="0.5" fill="#110f18" stroke="#191624" stroke-width="0.3"/>
  <!-- Right edge filler -->
  <rect x="85" y="35" width="8" height="6" rx="0.5" fill="#110f18" stroke="#191624" stroke-width="0.3"/>
  <rect x="88" y="45" width="7" height="5" rx="0.5" fill="#110f18" stroke="#191624" stroke-width="0.3"/>
  <rect x="85" y="22" width="6" height="5" rx="0.5" fill="#110f18" stroke="#191624" stroke-width="0.3"/>

  <!-- Road intersection markers (small dots at crossings) -->
  <circle cx="50" cy="50" r="0.6" fill="#1d1928"/>
  <circle cx="50" cy="30" r="0.5" fill="#191624"/>
  <circle cx="50" cy="65" r="0.5" fill="#191624"/>
  <circle cx="30" cy="50" r="0.5" fill="#191624"/>
  <circle cx="70" cy="50" r="0.5" fill="#191624"/>
  <circle cx="30" cy="30" r="0.4" fill="#161320"/>
  <circle cx="70" cy="30" r="0.4" fill="#161320"/>
  <circle cx="30" cy="65" r="0.4" fill="#161320"/>
  <circle cx="70" cy="65" r="0.4" fill="#161320"/>

  <!-- Map boundary markers -->
  <polyline points="0,0 3,0 3,3" fill="none" stroke="#282435" stroke-width="0.5"/>
  <polyline points="100,0 97,0 97,3" fill="none" stroke="#282435" stroke-width="0.5"/>
  <polyline points="0,100 3,100 3,97" fill="none" stroke="#282435" stroke-width="0.5"/>
  <polyline points="100,100 97,100 97,97" fill="none" stroke="#282435" stroke-width="0.5"/>
</svg>
